<svg width="59" height="59" viewBox="0 0 59 59" fill="none" xmlns="http://www.w3.org/2000/svg">
<g clip-path="url(#clip0_47_94)">
<path d="M8.005 26.8428C7.73043 25.8181 7.87417 24.7263 8.4046 23.8076C8.93504 22.8888 9.80871 22.2184 10.8334 21.9438L41.7431 13.6616C42.7678 13.3871 43.8596 13.5308 44.7783 14.0612C45.6971 14.5917 46.3675 15.4653 46.642 16.4901L50.7831 31.9449C51.0577 32.9696 50.914 34.0614 50.3835 34.9802C49.8531 35.8989 48.9794 36.5693 47.9547 36.8439L17.0451 45.1261C16.0204 45.4006 14.9285 45.2569 14.0098 44.7265C13.0911 44.196 12.4207 43.3224 12.1461 42.2976L8.005 26.8428Z" fill="#14B8A6"/>
<path d="M17.803 32.4997L25.5304 30.4291L17.803 32.4997ZM20.6314 27.6007L22.7019 35.3281L20.6314 27.6007Z" fill="#14B8A6"/>
<path d="M34.672 25.9091L34.6772 25.9284L34.672 25.9091Z" fill="#14B8A6"/>
<path d="M41.5028 28.2199L41.508 28.2392L41.5028 28.2199Z" fill="#14B8A6"/>
<path d="M17.803 32.4997L25.5304 30.4291M20.6314 27.6007L22.7019 35.3281M34.672 25.9091L34.6772 25.9284M41.5028 28.2199L41.508 28.2392M8.005 26.8428C7.73043 25.8181 7.87417 24.7263 8.4046 23.8076C8.93504 22.8888 9.80871 22.2184 10.8334 21.9438L41.7431 13.6616C42.7678 13.3871 43.8596 13.5308 44.7783 14.0612C45.6971 14.5917 46.3675 15.4653 46.642 16.4901L50.7831 31.9449C51.0577 32.9696 50.914 34.0614 50.3835 34.9802C49.8531 35.8989 48.9794 36.5693 47.9547 36.8439L17.0451 45.1261C16.0204 45.4006 14.9285 45.2569 14.0098 44.7265C13.0911 44.196 12.4207 43.3224 12.1461 42.2976L8.005 26.8428Z" stroke="#99F6E4" stroke-width="3" stroke-linecap="round" stroke-linejoin="round"/>
</g>
<defs>
<clipPath id="clip0_47_94">
<rect width="48" height="48" fill="white" transform="translate(0 12.4233) rotate(-15)"/>
</clipPath>
</defs>
</svg>
