<svg width="80" height="80" viewBox="0 0 80 80" fill="none" xmlns="http://www.w3.org/2000/svg">
<path d="M53.3333 60C55.1014 60 56.7971 60.7024 58.0474 61.9527C59.2976 63.2029 60 64.8986 60 66.6667C60 64.8986 60.7024 63.2029 61.9526 61.9527C63.2029 60.7024 64.8986 60 66.6667 60C64.8986 60 63.2029 59.2977 61.9526 58.0474C60.7024 56.7972 60 55.1015 60 53.3334C60 55.1015 59.2976 56.7972 58.0474 58.0474C56.7971 59.2977 55.1014 60 53.3333 60ZM53.3333 20C55.1014 20 56.7971 20.7024 58.0474 21.9527C59.2976 23.2029 60 24.8986 60 26.6667C60 24.8986 60.7024 23.2029 61.9526 21.9527C63.2029 20.7024 64.8986 20 66.6667 20C64.8986 20 63.2029 19.2977 61.9526 18.0474C60.7024 16.7972 60 15.1015 60 13.3334C60 15.1015 59.2976 16.7972 58.0474 18.0474C56.7971 19.2977 55.1014 20 53.3333 20ZM30 60C30 54.6957 32.1071 49.6086 35.8579 45.8579C39.6086 42.1072 44.6957 40 50 40C44.6957 40 39.6086 37.8929 35.8579 34.1422C32.1071 30.3914 30 25.3044 30 20C30 25.3044 27.8929 30.3914 24.1421 34.1422C20.3914 37.8929 15.3043 40 10 40C15.3043 40 20.3914 42.1072 24.1421 45.8579C27.8929 49.6086 30 54.6957 30 60Z" fill="url(#paint0_linear_38_90)"/>
<defs>
<linearGradient id="paint0_linear_38_90" x1="10" y1="40.0001" x2="66.25" y2="40.0001" gradientUnits="userSpaceOnUse">
<stop stop-color="#EC4899"/>
<stop offset="1" stop-color="#7C3AED"/>
</linearGradient>
</defs>
</svg>
