<svg width="83" height="100" viewBox="0 0 83 100" fill="none" xmlns="http://www.w3.org/2000/svg">
<path d="M37.5 58.3333C37.5 65.2375 48.6917 70.8333 62.5 70.8333C76.3083 70.8333 87.5 65.2375 87.5 58.3333M37.5 58.3333C37.5 51.4292 48.6917 45.8333 62.5 45.8333C76.3083 45.8333 87.5 51.4292 87.5 58.3333M37.5 58.3333V75C37.5 81.9 48.6917 87.5 62.5 87.5C76.3083 87.5 87.5 81.9 87.5 75V58.3333M12.5 25C12.5 29.4667 17.2667 33.5917 25 35.825C32.7333 38.0583 42.2667 38.0583 50 35.825C57.7333 33.5917 62.5 29.4667 62.5 25C62.5 20.5333 57.7333 16.4083 50 14.175C42.2667 11.9417 32.7333 11.9417 25 14.175C17.2667 16.4083 12.5 20.5333 12.5 25ZM12.5 25V66.6667C12.5 70.3667 15.7167 72.7083 20.8333 75M12.5 45.8333C12.5 49.5333 15.7167 51.875 20.8333 54.1667" stroke="#22C55E" stroke-width="8" stroke-linecap="round" stroke-linejoin="round"/>
</svg>
